<?xml version="1.0" encoding="UTF-8"?>
<svg id="Layer_2" data-name="Layer 2" xmlns="http://www.w3.org/2000/svg" viewBox="0 0 1105.18 614.45">
  <defs>
    <style>
      .cls-1 {
        fill: none;
        stroke: #121212;
        stroke-miterlimit: 10;
      }
    </style>
  </defs>
  <g id="Layer_1-2" data-name="Layer 1">
    <path class="cls-1" d="M797.95,453.95c80.9,0,146.72-65.82,146.72-146.72s-65.82-146.72-146.72-146.72H0"/>
    <path class="cls-1" d="M797.95.5c41.37,0,81.55,8.12,119.42,24.14,36.53,15.45,69.33,37.56,97.47,65.7,28.14,28.14,50.25,60.94,65.7,97.47,16.02,37.87,24.14,78.04,24.14,119.42s-8.12,81.55-24.14,119.42c-15.45,36.53-37.56,69.33-65.7,97.47-28.14,28.14-60.94,50.25-97.47,65.7-37.87,16.02-78.04,24.14-119.42,24.14"/>
    <path class="cls-1" d="M0,80.5h797.95c125.22,0,226.72,101.51,226.72,226.72s-101.51,226.72-226.72,226.72H0"/>
    <line class="cls-1" x1="797.95" y1=".5" y2=".5"/>
    <line class="cls-1" x1="797.95" y1="453.95" y2="453.95"/>
    <line class="cls-1" x1="797.95" y1="613.95" y2="613.95"/>
    <g>
      <path d="M361.78,290.04h4.05v2.73h-4.38l-.63,5.1h-2.73l.63-5.1h-5.07l-.63,5.1h-2.73l.63-5.1h-4.05v-2.73h4.38l.69-5.34h-4.05v-2.73h4.38l.63-5.1h2.73l-.63,5.1h5.04l.63-5.1h2.73l-.63,5.1h4.02l.03,2.73h-4.38l-.66,5.34ZM359.05,290.04l.66-5.34h-5.04l-.69,5.34h5.07Z"/>
      <path d="M368.83,287.37c0-6.9,3.78-10.8,8.76-10.8s8.79,3.9,8.79,10.8-3.78,10.8-8.79,10.8-8.76-3.9-8.76-10.8ZM382.45,287.37c0-5.07-1.98-7.41-4.86-7.41s-4.83,2.34-4.83,7.41,1.98,7.41,4.83,7.41,4.86-2.34,4.86-7.41Z"/>
      <path d="M396.13,276.87v21h-3.9v-17.73h-4.44v-3.27h8.34Z"/>
    </g>
    <g>
      <path d="M467.99,294.9c0,12.48-9.36,20.24-24.32,20.24h-11.28v15.44h-12.96v-56h24.24c14.96,0,24.32,7.76,24.32,20.32ZM454.87,294.9c0-6.16-4-9.76-11.92-9.76h-10.56v19.44h10.56c7.92,0,11.92-3.6,11.92-9.68Z"/>
      <path d="M474.47,302.58c0-16.64,12.96-28.96,30.64-28.96s30.64,12.24,30.64,28.96-13.04,28.96-30.64,28.96-30.64-12.32-30.64-28.96ZM522.63,302.58c0-10.64-7.52-17.92-17.52-17.92s-17.52,7.28-17.52,17.92,7.52,17.92,17.52,17.92,17.52-7.28,17.52-17.92Z"/>
      <path d="M581.19,330.58l-10.8-15.6h-11.92v15.6h-12.96v-56h24.24c14.96,0,24.32,7.76,24.32,20.32,0,8.4-4.24,14.56-11.52,17.68l12.56,18h-13.92ZM569.03,285.14h-10.56v19.52h10.56c7.92,0,11.92-3.68,11.92-9.76s-4-9.76-11.92-9.76Z"/>
      <path d="M615.1,285.14h-17.92v-10.56h48.8v10.56h-17.92v45.44h-12.96v-45.44Z"/>
      <path d="M665.9,284.98v14.8h25.92v10.4h-25.92v20.4h-12.96v-56h42.32v10.4h-29.36Z"/>
      <path d="M699.98,302.58c0-16.64,12.96-28.96,30.64-28.96s30.64,12.24,30.64,28.96-13.04,28.96-30.64,28.96-30.64-12.32-30.64-28.96ZM748.15,302.58c0-10.64-7.52-17.92-17.52-17.92s-17.52,7.28-17.52,17.92,7.52,17.92,17.52,17.92,17.52-7.28,17.52-17.92Z"/>
      <path d="M771.02,274.58h12.96v45.44h28.08v10.56h-41.04v-56Z"/>
      <path d="M819.34,274.58h12.96v56h-12.96v-56Z"/>
      <path d="M842.06,302.58c0-16.64,12.96-28.96,30.64-28.96s30.64,12.24,30.64,28.96-13.04,28.96-30.64,28.96-30.64-12.32-30.64-28.96ZM890.22,302.58c0-10.64-7.52-17.92-17.52-17.92s-17.52,7.28-17.52,17.92,7.52,17.92,17.52,17.92,17.52-7.28,17.52-17.92Z"/>
    </g>
  </g>
</svg>